<?xml version="1.0" standalone="no"?>
<!DOCTYPE svg PUBLIC "-//W3C//DTD SVG 20010904//EN"
 "http://www.w3.org/TR/2001/REC-SVG-20010904/DTD/svg10.dtd">
<svg version="1.0" xmlns="http://www.w3.org/2000/svg"
 width="319.193603pt" height="262.381859pt" viewBox="0 0 319.193603 262.381859"
 preserveAspectRatio="xMidYMid meet">
<metadata>
Created by Potrace Professional 1.0-eval
</metadata>
<g transform="translate(-38.203154,331.881859) rotate(-360.00) scale(0.100000,-0.100000)"
fill="#000000" stroke="none">
<path d="M1645 3305 c-283 -61 -793 -357 -1117 -647 -108 -97 -152 -159 -144
-205 11 -74 91 -150 167 -160 l41 -6 -7 32 -7 31 74 76 c267 277 778 625 1073
730 l80 28 97 1 97 0 32 -30 c49 -47 69 -98 69 -187 0 -110 -29 -236 -91 -399
l-29 -76 -62 -23 c-340 -124 -962 -616 -1284 -1016 -195 -242 -280 -442 -244
-574 17 -62 87 -130 165 -160 l60 -24 125 0 125 -1 60 33 c247 134 612 527
939 1011 166 246 333 563 395 750 42 127 65 260 56 330 -16 128 -83 251 -191
350 -142 130 -301 175 -479 136z m255 -991 c0 -14 -253 -374 -423 -602 -273
-367 -560 -683 -712 -784 -121 -80 -226 -98 -267 -47 -27 33 -22 71 23 156
143 271 493 689 772 921 161 134 377 271 526 333 70 29 81 32 81 23z"/>
<path d="M2750 2528 c-11 -18 -29 -64 -41 -102 -11 -39 -32 -93 -46 -121 -26
-52 -142 -246 -165 -278 l-13 -18 -38 16 c-59 24 -128 6 -207 -55 l-35 -27
-40 5 -41 4 -42 -39 c-48 -43 -107 -139 -123 -197 -30 -113 1 -230 72 -266
123 -63 294 40 417 253 29 50 62 148 62 184 0 17 29 71 82 150 l82 123 11 -18
c13 -21 11 -405 -2 -446 l-9 -30 -70 -21 c-128 -40 -210 -92 -249 -160 -30
-50 -32 -102 -6 -153 23 -45 43 -63 98 -91 69 -34 122 -37 204 -11 l72 23 53
53 c60 61 89 127 106 244 l11 77 35 11 35 11 28 -28 c77 -78 193 -25 396 181
122 123 194 214 186 234 -9 24 -21 16 -64 -38 -137 -176 -358 -353 -413 -332
-26 10 -18 21 30 45 160 80 318 296 298 407 -23 126 -86 138 -216 42 -132 -97
-234 -244 -259 -375 -14 -71 -9 -61 -38 -70 l-24 -7 7 113 c8 131 33 259 70
349 45 111 31 190 -51 280 -34 38 -124 110 -137 110 -3 0 -15 -14 -26 -32z
m580 -485 c0 -41 -124 -188 -189 -222 l-23 -13 43 64 c102 152 169 220 169
171z m-941 -152 c18 -11 16 -79 -3 -125 l-15 -36 -35 0 c-42 0 -76 37 -76 85
0 55 84 104 129 76z m-182 -130 c25 -52 54 -71 109 -71 l35 0 -18 -31 c-28
-48 -90 -115 -127 -138 -20 -12 -50 -21 -74 -21 l-41 0 -16 30 c-21 41 -19
113 5 161 21 40 87 119 99 119 3 -1 16 -22 28 -49z m458 -208 c-14 -59 -58
-133 -100 -172 l-45 -41 -43 0 c-51 0 -67 13 -67 55 0 57 60 110 180 158 81
33 84 33 75 0z"/>
<path d="M3357 2544 c-4 -4 -7 -14 -7 -22 0 -8 -18 -57 -40 -108 -40 -95 -50
-144 -28 -144 33 0 143 104 177 168 17 31 7 66 -23 85 -30 20 -69 30 -79 21z"/>
</g>
</svg>
