<?xml version="1.0" encoding="utf-8"?>
<!-- Generator: Adobe Illustrator 16.0.0, SVG Export Plug-In . SVG Version: 6.00 Build 0)  -->
<!DOCTYPE svg PUBLIC "-//W3C//DTD SVG 1.1//EN" "http://www.w3.org/Graphics/SVG/1.1/DTD/svg11.dtd">
<svg version="1.1" id="Capa_1" xmlns="http://www.w3.org/2000/svg" xmlns:xlink="http://www.w3.org/1999/xlink" x="0px" y="0px"
	 width="400px" height="400px" viewBox="0 0 400 400" enable-background="new 0 0 400 400" xml:space="preserve">
<g transform="translate(0.000000,400.000000) scale(0.100000,-0.100000)">
	<path d="M1665,3312.998c-303.999-65.996-861.001-390-1161.001-675c-106.001-100.996-130-138.999-120-190
		c15-78.999,103.999-157.998,177.002-157.998c30,0,31.001,2.002,26.001,28.999c-5,25,0.996,38.003,38.999,80
		c143.999,160,516.997,447.002,786.997,605C1672.002,3156,1905,3223.999,2000,3175c35.996-18.999,74.004-67.998,90-118.999
		c29.004-88.999-9.004-303.999-88.999-503.999c-100-250-107.002-262.002-405-675C1205,1335,895,995,693.999,890
		C635,857.998,548.999,849.003,510,870c-35,19.004-35,70,0,140.996c122.998,244.004,422.998,620,682.998,857.002
		c173.003,157.002,394.004,311.001,552.002,385c60,29.004,78.999,49.004,143.999,158.003c31.001,53.999,28.003,61.001-21.001,41.997
		c-215.996-85.996-648.999-400-936.997-677.002c-448.003-433.994-632.002-771.992-517.002-953.994
		c47.002-75,128.003-114.004,277.002-132.998c121.001-16.006,186.001,1.992,306.001,80.996c450.996,300,1110,1215,1285,1782.998
		c40.996,135,45,279.004,10.996,371.001c-88.994,236.001-305.996,398.003-530,395C1720,3317.998,1676.001,3316,1665,3312.998z"/>
	<path d="M3575.996,2035c-10,27.998-30.996,15-83.994-54.004c-65-85-199.004-213.994-277.002-265
		c-32.002-21.992-74.004-40-97.002-43.994l-40-5l7.002,43.994c10.996,67.002,25.996,96.006,107.002,204.004
		c80,106.001,123.994,152.998,135,142.002c15-15-37.002-96.006-107.998-167.998c-72.002-73.008-118.008-148.008-108.008-178.008
		c6.006-17.998,123.008,65,187.002,133.008C3379.004,1930.996,3425,2025,3425,2102.001c-0.996,65-24.004,106.997-67.998,121.997
		c-81.006,28.999-322.998-191.001-386.006-351.001c-10.996-27.998-22.998-73.994-26.992-100.996c-5-42.998-10-51.006-31.006-55
		l-25-5l7.002,102.002c9.004,130,29.004,239.995,62.002,328.994C2997.998,2256,3000.996,2278.999,2985,2336
		c-15.996,56.001-70,123.999-147.998,185c-56.006,45-57.998,45-80,21.001c-9.004-10-32.002-62.002-51.006-117.002
		c-35-102.002-87.998-203.999-170.996-336.001c-25.996-41.001-47.998-75-50-76.997c-0.996-1.001-15.996,5-34.004,13.999
		c-60,30-166.992-2.002-228.994-68.999c-19.004-20-24.004-40-27.998-97.998c-6.006-83.008,11.992-132.002,57.998-158.008
		c24.131-14.141,65.459-10.254,72.344,2.969c-0.098,1.68,0.244,3.535,0.957,5.488c-0.215,1.143-0.625,2.324-1.299,3.545
		c-3.232,5.654-3.096,7.227-0.85,5.576c-1.592,2.383-2.363,5.225-2.5,8.105c-0.371,0.654-1.006,1.934-1.084,2.051
		c-0.176,0.273-1.514,1.865-1.602,2.051c-0.762,0.791-1.523,1.602-2.393,2.275c1.064-0.889,0.85-0.811-0.645,0.244
		c-0.742,0.469-1.406,1.006-2.041,1.572c-14.814,5.801-28.535,17.422-37.891,35.127c-35,67.002-12.002,102.998,82.998,129.004
		C2360,1900,2370,1895,2380.996,1890c22.002-12.002,26.006-67.002,8.008-119.004c-1.65-4.678-3.711-8.877-6.025-12.725
		c-2.949-8.184-6.963-15.84-11.23-23.418c-5-12.285-10.303-24.268-16.172-35.889c-9.678-23.203-24.16-44.17-40.283-63.789
		C2277.49,1572.041,2193.447,1500,2135,1500c-42.002,0-65.996,27.998-72.002,82.998c-7.002,57.998,10,106.006,57.002,166.006
		c35,43.994,40,56.992,45.996,123.994c7.002,84.004,0,96.006-45,72.998C2022.998,1895,1927.998,1704.003,1945,1590
		c16.001-107.002,70.996-160,165.996-160c79.004,0,142.002,35,226.006,124.004C2437.998,1660.996,2510,1797.001,2510,1880
		c0,20.996,25,67.002,84.004,156.001l83.994,126.001l9.004-48.003c12.002-71.997,7.002-311.001-10-453.999
		c-15-132.002-37.002-192.998-92.998-259.004c-67.002-80-174.004-82.998-174.004-5.996c0,47.998,59.004,104.004,147.998,140.996
		c37.002,15,72.998,32.002,80,37.002c10,7.998,17.998,87.002,9.004,87.002c-2.002,0-27.998-7.998-57.998-19.004
		c-126.006-42.998-220-107.998-245-167.998c-18.008-42.002-18.008-107.002,0-142.002c38.994-75,146.992-127.998,240.996-117.998
		C2749.004,1230,2855.996,1350,2882.998,1545c11.006,85,11.006,85,44.004,90.996c25.996,5,38.994,1.006,63.994-20
		c61.006-50.996,113.008-45,221.006,26.006C3332.002,1722.001,3590,2000,3575.996,2035z"/>
	<path d="M3350,2531c-5-11.001-10-25-10-31.001s-15.996-47.998-34.004-92.998c-42.998-100-47.998-130-22.998-135
		c22.998-5,97.002,55.996,147.998,120.996c51.006,63.003,50,100,0,134.004C3389.004,2555,3364.004,2556,3350,2531z"/>
</g>
</svg>
